PathFileType	4	(X/Y/Z)	Run_400 01
DataRate	CameraRate	NumFrames	NumMarkers	Units	OrigDataRate	OrigDataStartFrame	OrigNumFrames
120	120	4	42	mm	120	87	128
Frame#	Time	LASI			RASI			LPSI			RPSI			RTH1			RTH2			RTH3			LTH1			LTH2			LTH3			RTB1			RTB2			RTB3			LTB1			LTB2			LTB3			RCAL			RTOE			RMT5			LCAL			LTOE			LMT5			LACR			RACR			CLAV			C7			RUA1			RUA2			RUA3			RLEL			RMEL			LUA1			LUA2			LUA3			LLEL			LMEL			RFAsuperior			RFAradius			RFAulna			LFAsuperior			LFAradius			LFAulna		
		X1	Y1	Z1	X2	Y2	Z2	X3	Y3	Z3	X4	Y4	Z4	X5	Y5	Z5	X6	Y6	Z6	X7	Y7	Z7	X8	Y8	Z8	X9	Y9	Z9	X10	Y10	Z10	X11	Y11	Z11	X12	Y12	Z12	X13	Y13	Z13	X14	Y14	Z14	X15	Y15	Z15	X16	Y16	Z16	X17	Y17	Z17	X18	Y18	Z18	X19	Y19	Z19	X20	Y20	Z20	X21	Y21	Z21	X22	Y22	Z22	X23	Y23	Z23	X24	Y24	Z24	X25	Y25	Z25	X26	Y26	Z26	X27	Y27	Z27	X28	Y28	Z28	X29	Y29	Z29	X30	Y30	Z30	X31	Y31	Z31	X32	Y32	Z32	X33	Y33	Z33	X34	Y34	Z34	X35	Y35	Z35	X36	Y36	Z36	X37	Y37	Z37	X38	Y38	Z38	X39	Y39	Z39	X40	Y40	Z40	X41	Y41	Z41	X42	Y42	Z42	

87	  0.725000	729.014129	1030.503336	-497.607912	738.438389	1045.248050	-260.892525	573.903900	1066.798063	-397.123934	580.113687	1064.985218	-310.238012	769.505604	862.409951	-202.711067	866.614799	773.440568	-242.115954	845.027138	630.484904	-241.315315	652.499288	880.822177	-534.907164	671.428959	756.398270	-524.130705	565.143865	645.547576	-510.805223	956.321224	451.841375	-301.684676	923.773521	380.486331	-251.565983	960.106958	273.948902	-323.511466	436.687156	458.556618	-429.112932	318.062857	477.420306	-466.613339	248.544158	441.864679	-388.796092	874.928505	112.991121	-342.673420	1089.533782	162.281353	-334.010318	1059.810546	125.440227	-246.563252	125.798880	530.201813	-384.501940	119.818073	318.592516	-341.747448	 64.610349	332.185719	-418.577518	782.698980	1484.964364	-529.253869	693.501050	1488.318237	-175.063177	814.806985	1442.780140	-300.903286	704.239701	1534.077289	-360.504691	625.908351	1428.223834	-106.138395	613.464624	1359.477083	-90.135578	512.102743	1391.852485	-90.499304	492.192274	1315.211823	-33.527664	456.309522	1296.988538	-112.774958	756.155016	1427.442799	-595.668135	678.679537	1385.754967	-612.186683	733.638600	1349.173775	-650.349159	698.141318	1255.235671	-708.404081	626.007704	1219.491467	-658.608120	556.640062	1264.739483	-23.256960	690.364786	1166.307244	-61.980284	638.671434	1122.233058	-54.235620	762.542385	1253.525543	-672.330742	847.304740	1249.064955	-515.905767	853.657808	1187.204736	-539.212881	
88	  0.733333	730.217691	1026.672798	-496.880092	736.475533	1040.440248	-260.579885	572.394772	1060.401382	-398.887710	577.954784	1058.153714	-311.638769	764.973225	855.021387	-201.867851	861.682656	766.484581	-241.011950	839.554631	623.819032	-242.767676	657.386207	875.606685	-535.155209	678.315372	751.500181	-523.799325	574.708523	639.577045	-513.060959	949.815912	444.939016	-303.885341	918.068594	373.400910	-253.069212	955.225471	267.101553	-324.999892	443.746948	459.209211	-430.120750	326.586153	485.858232	-468.167916	254.945620	456.414899	-390.302070	871.338480	104.327743	-343.168839	1085.728476	157.149328	-337.348848	1057.448605	119.761496	-249.210749	138.391920	553.175061	-387.104564	120.043716	342.262659	-343.964259	 66.214767	358.949402	-421.350730	781.596430	1480.368126	-528.688449	694.623172	1481.800414	-173.329916	814.616979	1437.235697	-300.699998	704.081918	1529.586463	-358.884418	627.915752	1420.804188	-103.766999	616.502924	1352.367959	-86.946803	514.476816	1383.369692	-86.846652	496.462675	1307.279110	-28.841075	459.417902	1287.316016	-107.395041	753.317049	1424.359521	-595.098221	675.202529	1384.938515	-611.311733	729.255752	1347.333520	-650.525685	690.599151	1254.767782	-709.459120	617.301686	1221.556182	-659.990097	562.410057	1258.909304	-18.940758	698.344581	1163.648034	-58.238663	647.976019	1118.499614	-49.079077	755.252000	1249.134196	-674.364458	840.803371	1238.078455	-518.675651	843.452641	1176.150876	-542.581167	
89	  0.741667	731.478409	1021.929177	-496.130033	734.667558	1034.917481	-259.616662	571.124111	1053.181014	-400.814731	575.906421	1050.725438	-313.414663	760.065639	847.795854	-201.841965	858.067256	760.804866	-240.381991	834.427313	617.177451	-244.386904	661.939915	869.544013	-535.093735	685.700582	745.866727	-523.075650	584.979171	632.595061	-515.299623	942.330589	437.149294	-306.025088	910.763906	365.785581	-254.452485	947.858634	259.155775	-326.262526	452.000032	458.871550	-431.601338	336.864451	493.263616	-469.894005	263.682314	469.779836	-391.959535	863.267481	 97.179854	-343.310022	1078.032008	148.073766	-340.924214	1050.519291	111.712245	-252.109687	153.447237	574.170115	-389.383922	123.606111	364.308912	-347.194678	 71.321103	384.139343	-424.767936	780.158630	1475.116213	-528.234355	695.800952	1474.428931	-171.564356	814.440723	1430.849608	-300.608506	703.847771	1524.450038	-357.038615	630.142569	1412.198516	-101.194302	619.951179	1344.085026	-83.519004	517.273388	1373.399030	-82.512834	501.430348	1297.905948	-23.572369	462.953956	1276.164755	-101.312644	749.899325	1420.681808	-594.540639	671.040167	1383.388562	-609.901040	724.190086	1344.861407	-650.449760	682.292814	1253.920982	-710.229407	608.236293	1223.248778	-660.811384	568.903784	1251.750440	-14.205366	707.111417	1160.106192	-54.402598	658.210589	1113.807627	-43.851120	746.951555	1244.155608	-676.151592	833.871857	1225.842305	-522.097462	832.630763	1164.160882	-546.912969	
90	  0.750000	732.807531	1016.324848	-495.457767	733.078717	1028.792283	-257.980690	570.398516	1045.186381	-402.811493	574.197257	1042.731727	-315.442929	755.291603	840.678623	-202.803735	855.040441	755.155561	-240.616278	828.782969	609.893393	-246.027055	666.229306	862.740027	-534.893616	693.617427	739.579117	-522.300497	595.831647	624.642740	-517.576178	934.007295	428.175208	-308.387960	902.292513	357.168604	-256.232025	938.195571	249.856749	-328.015282	461.510644	457.665202	-433.577980	348.847315	499.442293	-471.778762	274.651132	481.725863	-393.771993	850.573429	 92.860281	-343.743901	1066.143450	134.066738	-345.199079	1038.662105	100.876975	-255.773262	170.606903	592.952898	-391.376628	130.242610	384.312576	-351.355758	 80.048920	407.175265	-428.943087	778.507315	1469.231076	-527.861723	697.006970	1466.400093	-169.887527	814.330573	1423.777343	-300.694800	703.682802	1518.680185	-355.138699	632.578118	1402.591961	-98.527241	623.838014	1334.805836	-80.050112	520.560146	1362.088373	-77.635347	507.117580	1287.245022	-17.894935	467.284825	1263.605358	-94.742432	746.094061	1416.438010	-594.003405	666.354703	1381.173321	-608.014594	718.521963	1341.787053	-650.152560	673.388989	1252.762239	-710.734511	598.983081	1224.568307	-661.102107	576.105937	1243.367347	 -9.171245	716.586203	1155.729090	-50.605534	669.247212	1108.215712	-38.719240	737.651343	1238.681244	-677.462851	826.465099	1212.430008	-526.029099	821.169256	1151.368103	-552.001135	
